<?xml version="1.0" encoding="utf-8" ?><svg xmlns="http://www.w3.org/2000/svg" xmlns:xlink="http://www.w3.org/1999/xlink" width="1376" height="768" viewBox="0 0 1376 768"><path fill="#F9F9F7" transform="scale(0.749864 0.75)" d="M474.616 159.822C490.965 158.651 511.271 159.259 527.904 159.344L610.653 159.554L885.525 159.586L1201.25 159.567L1304.03 159.549C1319.7 159.549 1342.52 158.866 1357.73 159.726C1365.01 160.088 1371.97 162.881 1377.48 167.66C1383.78 173.128 1386.76 179.927 1387.29 188.133C1389.37 219.146 1387.87 262.848 1387.86 295.211L1387.8 498.835L1387.82 685.319C1387.83 717.703 1388.77 750.177 1387.3 782.499C1386.62 797.563 1379.22 813.918 1362.59 815.578C1346.81 817.155 1331.23 816.329 1315.38 816.239L1245.67 816.141L1013.76 816.21C1016.77 838.011 1019.36 865.068 1022.87 886.031C1036.6 900.804 1057.15 907.181 1064.35 918.221C1065.25 922.391 1065.15 925.658 1063.53 929.716C1059.99 931.695 1057.19 933.303 1053.09 933.4C1034.61 933.839 1015.72 933.681 997.241 933.68L889.333 933.689C868.194 933.653 847.055 933.742 825.918 933.955C811.022 934.095 795.431 934.918 780.717 932.997C767.124 931.222 768.664 919.45 777.367 911.847C787.849 902.691 799.427 896.479 811.33 889.486C814.276 878.664 816.605 853.317 817.992 840.986L820.44 825.536C820.933 822.513 821.705 819.149 822.329 816.116L611.059 816.356L526.711 816.911C509.795 816.982 478.04 819.43 463.282 812.601C445.773 802.816 448.147 785.322 447.836 769.637C446.78 716.436 447.359 662.775 447.331 609.729L447.176 334.502L447.119 244.951C447.102 228.736 447.004 212.501 447.226 196.289C447.495 176.647 455.106 164.582 474.616 159.822Z"/><path fill="#222121" transform="scale(0.749864 0.75)" d="M822.329 816.116L611.059 816.356L526.711 816.911C509.795 816.982 478.04 819.43 463.282 812.601C445.773 802.816 448.147 785.322 447.836 769.637C446.78 716.436 447.359 662.775 447.331 609.729L447.176 334.502L447.119 244.951C447.102 228.736 447.004 212.501 447.226 196.289C447.495 176.647 455.106 164.582 474.616 159.822C476.574 161.787 477.508 161.993 477.731 164.278L477.187 165.353C472.963 166.16 468.589 166.894 464.482 168.13C459.176 174.226 453.362 180.88 452.637 189.242C450.969 208.476 451.556 229.558 451.568 248.903L451.617 357.516L451.799 733.569L1383.3 733.645L1383.33 352.999L1383.09 216.542C1383.13 207.277 1382.44 197.052 1382.62 188.132L1387.29 188.133C1389.37 219.146 1387.87 262.848 1387.86 295.211L1387.8 498.835L1387.82 685.319C1387.83 717.703 1388.77 750.177 1387.3 782.499C1386.62 797.563 1379.22 813.918 1362.59 815.578C1346.81 817.155 1331.23 816.329 1315.38 816.239L1245.67 816.141L1013.76 816.21C1016.77 838.011 1019.36 865.068 1022.87 886.031C1036.6 900.804 1057.15 907.181 1064.35 918.221C1065.25 922.391 1065.15 925.658 1063.53 929.716C1059.99 931.695 1057.19 933.303 1053.09 933.4C1034.61 933.839 1015.72 933.681 997.241 933.68L889.333 933.689C868.194 933.653 847.055 933.742 825.918 933.955C811.022 934.095 795.431 934.918 780.717 932.997C767.124 931.222 768.664 919.45 777.367 911.847C787.849 902.691 799.427 896.479 811.33 889.486C814.276 878.664 816.605 853.317 817.992 840.986L820.44 825.536C820.933 822.513 821.705 819.149 822.329 816.116Z"/><path fill="#F9F9F7" transform="scale(0.749864 0.75)" d="M825.156 815.968C886.607 816.237 948.059 816.185 1009.51 815.812C1008.28 834.798 1014.67 869.175 1018.59 888.597L882.902 888.599C863.059 888.564 836.801 889.429 817.389 888.464C818.676 873.937 821.119 858.912 823.549 844.498L825.087 832.049C825.12 826.729 825.222 821.275 825.156 815.968Z"/><path fill="#F9F9F7" transform="scale(0.749864 0.75)" d="M814.843 893.128C836.1 893.708 857.532 893.137 878.819 893.08L960.899 893.404C1012.86 893.477 1014.44 887.451 1058.26 918.006C1050.42 923.502 968.896 921.458 952.696 921.294C929.795 921.177 906.894 921.206 883.993 921.382L812.837 921.381C802.197 921.378 786.055 921.869 775.736 921.126C777.126 914.962 787.645 910.963 793.183 907.509C800.772 902.774 807.568 898.293 814.843 893.128Z"/><path fill="#F9F9F7" transform="scale(0.749864 0.75)" d="M1058.26 918.006C1062.09 919.217 1060.48 919.168 1064.35 918.221C1065.25 922.391 1065.15 925.658 1063.53 929.716L1060.52 924.981C1057.88 926.364 1052.95 929.134 1049.97 929.185C963.895 930.655 877.691 929.442 791.584 929.908C784.417 929.946 780.757 930.585 775.152 925.727L775.736 921.126C786.055 921.869 802.197 921.378 812.837 921.381L883.993 921.382C906.894 921.206 929.795 921.177 952.696 921.294C968.896 921.458 1050.42 923.502 1058.26 918.006Z"/><path fill="#3D3B3A" transform="scale(0.749864 0.75)" d="M1058.26 918.006C1062.09 919.217 1060.48 919.168 1064.35 918.221C1065.25 922.391 1065.15 925.658 1063.53 929.716L1060.52 924.981C1056.85 923.777 1053.65 923.727 1049.84 923.749C963.9 924.238 877.946 923.524 792.007 923.879C788.35 923.894 778.067 924.035 775.152 925.727L775.736 921.126C786.055 921.869 802.197 921.378 812.837 921.381L883.993 921.382C906.894 921.206 929.795 921.177 952.696 921.294C968.896 921.458 1050.42 923.502 1058.26 918.006Z"/><path fill="#6F6D6D" transform="scale(0.749864 0.75)" d="M817.992 840.986L820.44 825.536C821.292 828.017 821.812 832.024 825.087 832.049L823.549 844.498L817.992 840.986Z"/><path fill="#F9F9F7" transform="scale(0.749864 0.75)" d="M451.864 737.217L1063.69 737.152L1268.57 737.178C1306.15 737.21 1346.16 738.018 1383.53 737.029C1382.57 747.22 1382.66 758.081 1382.76 768.311C1382.9 783.496 1383.3 791.14 1374.13 803.671C1362.43 814.428 1334.49 811.75 1318.64 811.795L1252.87 811.793L1051.49 811.697L670.882 811.904L545.036 812.182C526.702 812.241 508.417 812.488 490.031 812.546C483.856 812.267 470.873 812.05 466.123 808.463C450.28 796.501 452.332 778.227 452.36 761.197C452.294 753.202 452.129 745.208 451.864 737.217Z"/><path fill="#D3D2D2" transform="scale(0.749864 0.75)" d="M908.524 761.519L910.777 762.473C915.826 759.979 912.192 755.752 918.471 754.284C923.485 756.215 920.471 759.645 925.636 760.734C926.088 760.911 926.535 761.097 926.979 761.293C942.809 768.366 937.25 788.574 923.346 793.669C904.514 800.57 886.594 766.907 908.524 761.519Z"/><path fill="#222121" transform="scale(0.749864 0.75)" d="M925.636 760.734C926.088 760.911 926.535 761.097 926.979 761.293C942.809 768.366 937.25 788.574 923.346 793.669C904.514 800.57 886.594 766.907 908.524 761.519C904.235 776.267 899.494 780.536 914.897 789.273C927.575 786.228 934.922 783.973 928.875 770.122C927.573 767.139 925.465 763.874 925.636 760.734Z"/><defs><linearGradient id="gradient_0" gradientUnits="userSpaceOnUse" x1="1015.8854" y1="355.56659" x2="849.26514" y2="-8.1537151"><stop offset="0" stop-color="#2D3835"/><stop offset="1" stop-color="#52464A"/></linearGradient></defs><path fill="url(#gradient_0)" transform="scale(0.749864 0.75)" d="M474.616 159.822C490.965 158.651 511.271 159.259 527.904 159.344L610.653 159.554L885.525 159.586L1201.25 159.567L1304.03 159.549C1319.7 159.549 1342.52 158.866 1357.73 159.726C1365.01 160.088 1371.97 162.881 1377.48 167.66C1383.78 173.128 1386.76 179.927 1387.29 188.133L1382.62 188.132C1376.53 171.572 1367.96 164.802 1350.44 164.745C1329.08 164.674 1307.7 164.781 1286.34 164.806L1163.51 164.829L781.211 164.852L570.374 164.883L513.652 164.963C503.053 164.901 487.018 164.17 477.187 165.353L477.731 164.278C477.508 161.993 476.574 161.787 474.616 159.822Z"/><path fill="#F9F9F7" transform="scale(0.749864 0.75)" d="M482.862 191.842L1352.12 191.993L1352.13 538.598L1352.23 645.149C1352.25 658.791 1353.04 687.53 1351.81 700.384L1351.85 703.698L1350.55 704.941C1333.39 706.25 1303.59 705.186 1285.39 705.173L1157.91 705.183L755.921 705.232L561.103 705.256L512.092 705.505C505.3 705.549 489.947 706.054 484.118 704.812C482.497 702.555 483.04 702.71 483.201 699.474C482.43 678.889 482.861 656.66 482.869 635.929L482.892 530.949L482.862 191.842Z"/><path fill="#222121" transform="scale(0.749864 0.75)" d="M482.862 191.842L1352.12 191.993L1352.13 538.598L1352.23 645.149C1352.25 658.791 1353.04 687.53 1351.81 700.384C1349.64 696.833 1351.4 686.543 1349.57 679.461C1348.61 664.041 1349.24 640.763 1349.25 624.915L1349.45 519.728L1349.59 196.003L485.528 196.021L485.527 675.478C484.97 680.644 484.677 697.003 483.201 699.474C482.43 678.889 482.861 656.66 482.869 635.929L482.892 530.949L482.862 191.842Z"/><defs><linearGradient id="gradient_1" gradientUnits="userSpaceOnUse" x1="918.01746" y1="722.80054" x2="916.12701" y2="681.05414"><stop offset="0" stop-color="#141A19"/><stop offset="1" stop-color="#483F41"/></linearGradient></defs><path fill="url(#gradient_1)" transform="scale(0.749864 0.75)" d="M485.527 675.478C485.606 684.115 485.633 692.753 485.605 701.39L1349.44 701.415L1349.57 679.461C1351.4 686.543 1349.64 696.833 1351.81 700.384L1351.85 703.698L1350.55 704.941C1333.39 706.25 1303.59 705.186 1285.39 705.173L1157.91 705.183L755.921 705.232L561.103 705.256L512.092 705.505C505.3 705.549 489.947 706.054 484.118 704.812C482.497 702.555 483.04 702.71 483.201 699.474C484.677 697.003 484.97 680.644 485.527 675.478Z"/><path fill="#FDB876" transform="scale(0.749864 0.75)" d="M693.358 304.832C696.32 304.591 698.597 304.824 700.628 302.878C704.151 292.66 699.3 255.971 702.585 247.178C707.729 251.607 704.246 293.46 706.351 304.287C714.628 304.564 719.319 304.777 727.26 306.038C732.428 306.859 749.852 311.189 753.636 310.944C755.127 311.89 756.51 312.939 758.216 313.314C758.92 314.458 789.704 331.651 795.871 337.285L793.398 340.756L795.403 343.079L796.534 343.232C798.786 342.002 799.644 341.058 801.5 339.35C811.692 354.391 818.846 356.543 829.091 374.936C828.398 377.473 827.996 377.715 826.248 379.796L829.175 386.412C830.501 384.98 831.56 381.558 832.496 379.465C836.986 387.889 844.738 403.408 847.392 412.222C856.321 441.873 855.29 475.578 846.403 505.057C834.798 543.556 807.032 576.995 771.836 596.165C763.124 600.911 752.541 604.938 743.157 608.222L733.45 610.546L723.538 612.322C705.487 615.064 693.355 613.754 675.511 611.478C639.901 602.358 607.272 584.11 585.528 553.858C583.171 551.447 577.38 542.524 575.607 539.466C551.239 497.456 549.048 453.69 560.679 407.605C564.469 398.617 569.217 388.912 573.351 379.997C564.916 374.746 527.27 353.726 525.907 346.961C533.765 345.468 555.839 363.937 563.61 368.047C569.177 370.991 570.398 371.771 576.639 373.886C586.242 364.607 595.347 352.087 603.322 341.255L604.046 339.587L607.46 335.755C608.118 336.305 608.715 336.317 609.668 336.583C613.349 335.418 617.322 331.975 620.494 329.556C623.269 327.466 627.735 324.928 630.808 323.058C636.073 319.647 645.317 316.376 648.571 313.57L650.027 314.811C652.97 313.879 652.205 314.009 654.479 311.383C655.735 310.736 658.76 309.772 660.229 309.254C672.595 307.698 678.763 303.197 693.358 304.832Z"/><path fill="#37271C" transform="scale(0.749864 0.75)" d="M829.175 386.412C830.501 384.98 831.56 381.558 832.496 379.465C836.986 387.889 844.738 403.408 847.392 412.222C856.321 441.873 855.29 475.578 846.403 505.057C834.798 543.556 807.032 576.995 771.836 596.165C763.124 600.911 752.541 604.938 743.157 608.222L740.872 603.742C743.981 602.889 747.445 601.526 750.521 600.4C764.387 595.206 780.504 587.881 791.071 577.281C797.796 569.105 806.381 563.738 815.975 551.301C832.055 537.784 842.298 504.013 846.542 484.016C852.977 453.699 847.179 412.186 829.175 386.412Z"/><path fill="#EAB688" transform="scale(0.749864 0.75)" d="M796.534 343.232C798.786 342.002 799.644 341.058 801.5 339.35C811.692 354.391 818.846 356.543 829.091 374.936C828.398 377.473 827.996 377.715 826.248 379.796L829.175 386.412C847.179 412.186 852.977 453.699 846.542 484.016C842.298 504.013 832.055 537.784 815.975 551.301L816.162 550.311C817.13 545.023 829.077 524.752 832.087 517.796C852.692 472.172 847.418 428.669 826.024 384.644C820.539 373.356 796.647 348.993 795.403 343.079L796.534 343.232Z"/><path fill="#3D3B3A" transform="scale(0.749864 0.75)" d="M796.534 343.232C798.786 342.002 799.644 341.058 801.5 339.35C811.692 354.391 818.846 356.543 829.091 374.936C828.398 377.473 827.996 377.715 826.248 379.796C824.688 377.197 823.596 373.434 821.333 369.933C814.444 359.277 805.834 351.66 796.534 343.232Z"/><defs><linearGradient id="gradient_2" gradientUnits="userSpaceOnUse" x1="784.42737" y1="349.04163" x2="686.48047" y2="267.30652"><stop offset="0" stop-color="#361E0F"/><stop offset="1" stop-color="#404041"/></linearGradient></defs><path fill="url(#gradient_2)" transform="scale(0.749864 0.75)" d="M693.358 304.832C696.32 304.591 698.597 304.824 700.628 302.878C704.151 292.66 699.3 255.971 702.585 247.178C707.729 251.607 704.246 293.46 706.351 304.287C714.628 304.564 719.319 304.777 727.26 306.038C732.428 306.859 749.852 311.189 753.636 310.944C755.127 311.89 756.51 312.939 758.216 313.314C758.92 314.458 789.704 331.651 795.871 337.285L793.398 340.756C787.895 338.321 779.148 329.379 772.205 327.148C769.729 326.353 763.66 323.28 761.688 321.947C755.634 322.38 740.144 317.029 733.525 315.121C726.328 313.045 703.3 312.708 699.66 308.238L694.734 308.594C693.554 307.233 693.624 306.601 693.358 304.832Z"/><path fill="#EAB688" transform="scale(0.749864 0.75)" d="M699.66 308.238C711.765 305.432 752.36 312.985 761.688 321.947C755.634 322.38 740.144 317.029 733.525 315.121C726.328 313.045 703.3 312.708 699.66 308.238Z"/><path fill="#37271C" transform="scale(0.749864 0.75)" d="M560.679 407.605C561.823 411.424 561.765 413.442 564.424 415.843L564.329 416.446C561.746 420.08 561.346 426.722 560.875 431.205C557.267 467.191 558.718 495.791 575.439 529.076C577.828 533.831 582.537 542.546 585.809 546.592C590.542 552.445 592.926 553.425 596.982 560.413L594.67 561.955C591.657 560.786 590.079 556.804 587.046 553.519L585.528 553.858C583.171 551.447 577.38 542.524 575.607 539.466C551.239 497.456 549.048 453.69 560.679 407.605Z"/><path fill="#37271C" transform="scale(0.749864 0.75)" d="M603.322 341.255L608.331 345.208C591.313 363.689 580.937 370.938 570.944 397.062C569.071 401.959 566.068 411.812 564.424 415.843C561.765 413.442 561.823 411.424 560.679 407.605C564.469 398.617 569.217 388.912 573.351 379.997C564.916 374.746 527.27 353.726 525.907 346.961C533.765 345.468 555.839 363.937 563.61 368.047C569.177 370.991 570.398 371.771 576.639 373.886C586.242 364.607 595.347 352.087 603.322 341.255Z"/><path fill="#37271C" transform="scale(0.749864 0.75)" d="M585.528 553.858L587.046 553.519C590.079 556.804 591.657 560.786 594.67 561.955L596.982 560.413C598.469 561.95 600.664 564.44 602.402 565.483C613.346 576.586 621.168 584.082 635.336 591.03C645.161 597.334 658.434 601.815 669.722 604.632C673.147 605.739 675.901 606.75 679.485 607.22L675.511 611.478C639.901 602.358 607.272 584.11 585.528 553.858Z"/><path fill="#3D3B3A" transform="scale(0.749864 0.75)" d="M679.485 607.22C688.252 607.695 694.778 607.62 703.579 607.32L718.506 607.738C720.495 610.273 720.828 610.576 723.538 612.322C705.487 615.064 693.355 613.754 675.511 611.478L679.485 607.22Z"/><path fill="#3D3B3A" transform="scale(0.749864 0.75)" d="M660.229 309.254C672.595 307.698 678.763 303.197 693.358 304.832C693.624 306.601 693.554 307.233 694.734 308.594C686.434 311.218 674.709 312.395 665.925 313.439C664.293 311.479 662.423 310.585 660.229 309.254Z"/><path fill="#EAB688" transform="scale(0.749864 0.75)" d="M750.521 600.4C753.847 593.961 783.152 577.088 791.071 577.281C780.504 587.881 764.387 595.206 750.521 600.4Z"/><path fill="#37271C" transform="scale(0.749864 0.75)" d="M654.479 311.383C655.735 310.736 658.76 309.772 660.229 309.254C662.423 310.585 664.293 311.479 665.925 313.439L655.159 317.708C648.305 318.881 644.642 319.33 639.02 323.736L632.391 327.89C631.892 326.737 631.213 324.334 630.808 323.058C636.073 319.647 645.317 316.376 648.571 313.57L650.027 314.811C652.97 313.879 652.205 314.009 654.479 311.383Z"/><path fill="#EAB688" transform="scale(0.749864 0.75)" d="M602.402 565.483C610.581 567.339 630.719 584.117 635.336 591.03C621.168 584.082 613.346 576.586 602.402 565.483Z"/><path fill="#37271C" transform="scale(0.749864 0.75)" d="M620.494 329.556L622.791 333.188C618.046 337.284 613.225 341.292 608.331 345.208L603.322 341.255L604.046 339.587L607.46 335.755C608.118 336.305 608.715 336.317 609.668 336.583C613.349 335.418 617.322 331.975 620.494 329.556Z"/><path fill="#EAB688" transform="scale(0.749864 0.75)" d="M669.722 604.632C679.066 601.838 694.647 603.234 703.579 607.32C694.778 607.62 688.252 607.695 679.485 607.22C675.901 606.75 673.147 605.739 669.722 604.632Z"/><path fill="#37271C" transform="scale(0.749864 0.75)" d="M718.506 607.738C724.205 607.083 726.596 606.595 732.121 605.037L733.45 610.546L723.538 612.322C720.828 610.576 720.495 610.273 718.506 607.738Z"/><path fill="#3D3B3A" transform="scale(0.749864 0.75)" d="M630.808 323.058C631.213 324.334 631.892 326.737 632.391 327.89C629.264 331.041 626.335 330.125 622.791 333.188L620.494 329.556C623.269 327.466 627.735 324.928 630.808 323.058Z"/><path fill="#EAB688" transform="scale(0.749864 0.75)" d="M639.02 323.736C644.642 319.33 648.305 318.881 655.159 317.708C651.547 323.365 645.716 326.62 639.02 323.736Z"/><path fill="#3D3B3A" transform="scale(0.749864 0.75)" d="M732.121 605.037L740.872 603.742L743.157 608.222L733.45 610.546L732.121 605.037Z"/><path fill="#EAB688" transform="scale(0.749864 0.75)" d="M564.329 416.446C567.272 424.205 568.008 426.191 560.875 431.205C561.346 426.722 561.746 420.08 564.329 416.446Z"/><path fill="#F9F9F7" transform="scale(0.749864 0.75)" d="M701.266 371.56L702.099 369.024L703.451 368.816C705.454 371.601 705.579 373.236 705.605 376.704C706.616 396.446 715.847 390.233 731.692 389.228C732.393 382.704 732.369 377.969 738.342 374.305L738.481 373.429C738.73 370.278 738.203 370.951 739.899 368.944C749.147 369.877 744.526 389.314 743.109 394.796C750.719 395.266 763.268 400.415 767.465 397.758C768.58 397.052 768.43 395.043 772.919 393.21C775.174 389.67 777.45 385.984 779.816 382.532C777.921 388.146 772.572 401.719 773.84 406.684C774.374 406.945 775.302 407.462 775.825 407.576C786.445 405.328 786.525 412.893 795.463 413.32C798.584 413.469 801.303 408.15 807.098 406.972C810.005 404.708 809.367 404.539 812.626 404.077L813.647 405.231C813.345 406.909 813.278 407.96 812.436 409.466C811.386 415.187 809.494 417.323 805.974 421.962C815.078 434.277 835.627 457.389 815.244 469.746C809.857 475.23 807.064 477.998 802.832 484.549C806.946 488.296 814.812 494.845 814.006 500.936C810.141 501.589 804.947 493.836 802.769 490.844C793.528 494.606 788.016 498.966 779.617 503.595C783.297 510.013 786.111 513.515 785.464 520.934C784.397 524.148 784.364 523.452 781.516 525.967C773.609 521.819 774.446 514.288 769.733 510.469C763.825 508.57 756.165 513.424 750.468 514.66C748.378 515.113 745.958 514.762 743.045 515.219L741.701 514.379L737.56 514.564C729.617 515.635 721.348 517.265 713.439 517.229C706.945 522.748 709.358 532.626 710.008 540.562L708.603 542.465L707.451 541.979C706 538.775 706.224 536.771 706.207 533.26C705.73 528.135 705.449 524.66 705.522 519.444C695.993 521.177 689.046 521.005 679.375 520.83C679.814 525.369 681.466 545.148 671.924 540.233C670.953 536.955 671.178 535.735 671.399 532.423C672.138 522.472 664.889 519.289 660.947 513.397L660.326 513.101L659.024 513.083C655.492 514.077 642.459 519.546 641.67 519.605C642.746 516.36 644.175 512.747 645.371 509.5L645.606 508.693C644.708 507.715 643.52 507.16 642.355 506.491C635.13 504.443 629.434 502.045 623.166 497.805C620.615 498.188 617.914 498.527 615.415 499.115C611.821 501.399 608.233 504.29 603.999 504.176C602.662 505.908 601.717 507.164 600.176 508.743C597.952 508.381 598.871 508.871 597.334 507.208L597.248 506.312C596.644 499.516 599.545 497.565 604.014 492.275C598.604 478.288 590.357 478.467 590.718 466.798C590.426 464.936 589.732 462.646 589.237 460.781C587.337 455.364 587.158 453.475 586.554 447.771C590.636 440.539 592.934 437.752 598.167 431.238C602.226 426.185 601.085 424.097 599.895 417.844L604.427 422.294L607.536 421.592L606.669 416.8C618.435 418.915 617.493 409.479 631.715 410.764L636.769 407.251C633.774 399.348 631.135 392.162 628.567 384.118C634.993 390.088 636.084 391.222 638.869 399.473C673.946 400.746 656.697 386.841 664.72 375.425C665.121 374.036 665.617 373.18 666.241 371.885L668.09 371.359C673.455 375.693 674.446 383.276 676.152 390.039C701.239 388.061 698.954 396.216 701.266 371.56Z"/><path fill="#37271C" transform="scale(0.749864 0.75)" d="M701.266 371.56L702.099 369.024L703.451 368.816C705.454 371.601 705.579 373.236 705.605 376.704C706.616 396.446 715.847 390.233 731.692 389.228C732.393 382.704 732.369 377.969 738.342 374.305L738.481 373.429C738.73 370.278 738.203 370.951 739.899 368.944C749.147 369.877 744.526 389.314 743.109 394.796C750.719 395.266 763.268 400.415 767.465 397.758C768.58 397.052 768.43 395.043 772.919 393.21C775.174 389.67 777.45 385.984 779.816 382.532C777.921 388.146 772.572 401.719 773.84 406.684C774.374 406.945 775.302 407.462 775.825 407.576C786.445 405.328 786.525 412.893 795.463 413.32C798.584 413.469 801.303 408.15 807.098 406.972C810.005 404.708 809.367 404.539 812.626 404.077L813.647 405.231C813.345 406.909 813.278 407.96 812.436 409.466C811.386 415.187 809.494 417.323 805.974 421.962C815.078 434.277 835.627 457.389 815.244 469.746C809.857 475.23 807.064 477.998 802.832 484.549C806.946 488.296 814.812 494.845 814.006 500.936C810.141 501.589 804.947 493.836 802.769 490.844C793.528 494.606 788.016 498.966 779.617 503.595C783.297 510.013 786.111 513.515 785.464 520.934C784.397 524.148 784.364 523.452 781.516 525.967C773.609 521.819 774.446 514.288 769.733 510.469C763.825 508.57 756.165 513.424 750.468 514.66C748.378 515.113 745.958 514.762 743.045 515.219L741.701 514.379L746.754 511.431L747.449 508.357C752.853 506.628 761.974 504.094 765.934 500.32C770.589 497.632 776.209 495.715 781.178 493.36C798.084 485.349 807.207 472.04 816.103 456.133C809.019 433.515 801.604 428.908 782.489 417.574C734.088 388.876 677.867 389.521 628.812 416.973C563.485 453.531 600.23 484.579 650.291 504.561C648.656 506.603 648.041 507.795 645.606 508.693C644.708 507.715 643.52 507.16 642.355 506.491C635.13 504.443 629.434 502.045 623.166 497.805C620.615 498.188 617.914 498.527 615.415 499.115C611.821 501.399 608.233 504.29 603.999 504.176C602.662 505.908 601.717 507.164 600.176 508.743C597.952 508.381 598.871 508.871 597.334 507.208L597.248 506.312C596.644 499.516 599.545 497.565 604.014 492.275C598.604 478.288 590.357 478.467 590.718 466.798C590.426 464.936 589.732 462.646 589.237 460.781C587.337 455.364 587.158 453.475 586.554 447.771C590.636 440.539 592.934 437.752 598.167 431.238C602.226 426.185 601.085 424.097 599.895 417.844L604.427 422.294L607.536 421.592L606.669 416.8C618.435 418.915 617.493 409.479 631.715 410.764L636.769 407.251C633.774 399.348 631.135 392.162 628.567 384.118C634.993 390.088 636.084 391.222 638.869 399.473C673.946 400.746 656.697 386.841 664.72 375.425C665.121 374.036 665.617 373.18 666.241 371.885L668.09 371.359C673.455 375.693 674.446 383.276 676.152 390.039C701.239 388.061 698.954 396.216 701.266 371.56Z"/><path fill="#EAB688" transform="scale(0.749864 0.75)" d="M664.72 375.425C665.121 374.036 665.617 373.18 666.241 371.885L668.09 371.359C673.455 375.693 674.446 383.276 676.152 390.039C701.239 388.061 698.954 396.216 701.266 371.56C701.361 378.411 701.527 385.387 701.525 392.226C695.088 392.645 679.376 393.342 674.193 395.667C672.297 396.811 672.233 396.891 670.087 396.807C669.317 391.339 666.262 381.122 664.72 375.425Z"/><path fill="#462511" transform="scale(0.749864 0.75)" d="M664.72 375.425C665.121 374.036 665.617 373.18 666.241 371.885L668.09 371.359C668.972 377.243 670.889 391.295 674.193 395.667C672.297 396.811 672.233 396.891 670.087 396.807C669.317 391.339 666.262 381.122 664.72 375.425Z"/><path fill="#EAB688" transform="scale(0.749864 0.75)" d="M812.436 409.466C811.386 415.187 809.494 417.323 805.974 421.962C815.078 434.277 835.627 457.389 815.244 469.746C817.478 464.065 819.198 459.088 821.087 453.283C817.953 440.971 808.315 432.063 799.664 423.037C804.331 417.475 807.145 414.426 812.436 409.466Z"/><path fill="#EAB688" transform="scale(0.749864 0.75)" d="M765.934 500.32C766.664 501.771 767.016 503.005 768.197 503.885C774.566 509.635 779.092 517.78 781.516 525.967C773.609 521.819 774.446 514.288 769.733 510.469C763.825 508.57 756.165 513.424 750.468 514.66C748.378 515.113 745.958 514.762 743.045 515.219L741.701 514.379L746.754 511.431L747.449 508.357C752.853 506.628 761.974 504.094 765.934 500.32Z"/><path fill="#37271C" transform="scale(0.749864 0.75)" d="M765.934 500.32C766.664 501.771 767.016 503.005 768.197 503.885C761.174 506.314 753.651 508.775 746.754 511.431L747.449 508.357C752.853 506.628 761.974 504.094 765.934 500.32Z"/><path fill="#EAB688" transform="scale(0.749864 0.75)" d="M738.481 373.429C738.73 370.278 738.203 370.951 739.899 368.944C749.147 369.877 744.526 389.314 743.109 394.796C750.719 395.266 763.268 400.415 767.465 397.758C768.58 397.052 768.43 395.043 772.919 393.21C771.813 396.584 770.985 399.946 767.461 401.551C760.067 404.919 745.904 398.546 738.158 395.845C739.902 390.026 744.646 377.996 740.916 373.094L738.481 373.429Z"/><path fill="#EAB688" transform="scale(0.749864 0.75)" d="M774.882 501.572C779.59 497.6 790.403 489.768 796.617 488.019C798.864 487.387 800.846 489.438 802.769 490.844C793.528 494.606 788.016 498.966 779.617 503.595C783.297 510.013 786.111 513.515 785.464 520.934C780.117 514.513 777.375 509.564 774.882 501.572Z"/><path fill="#EAB688" transform="scale(0.749864 0.75)" d="M664.72 375.425C666.262 381.122 669.317 391.339 670.087 396.807C660.289 397.346 648.082 405.236 641.16 403.163C639.747 401.583 639.481 401.442 638.869 399.473C673.946 400.746 656.697 386.841 664.72 375.425Z"/><path fill="#EAB688" transform="scale(0.749864 0.75)" d="M599.895 417.844L604.427 422.294C606.402 424.327 607.274 424.436 607.265 426.662C597.492 439.393 590.195 442.763 589.237 460.781C587.337 455.364 587.158 453.475 586.554 447.771C590.636 440.539 592.934 437.752 598.167 431.238C602.226 426.185 601.085 424.097 599.895 417.844Z"/><path fill="#EAB688" transform="scale(0.749864 0.75)" d="M590.718 466.798C596.57 477.672 601.896 481.248 611.373 488.704C606.019 495.039 602.141 500.417 597.334 507.208L597.248 506.312C596.644 499.516 599.545 497.565 604.014 492.275C598.604 478.288 590.357 478.467 590.718 466.798Z"/><path fill="#EAB688" transform="scale(0.749864 0.75)" d="M738.342 374.305C738.231 381.328 736.418 387.92 734.622 394.705C723.131 392.784 717.04 392.144 705.412 392.098L705.605 376.704C706.616 396.446 715.847 390.233 731.692 389.228C732.393 382.704 732.369 377.969 738.342 374.305Z"/><path fill="#EAB688" transform="scale(0.749864 0.75)" d="M775.825 407.576C786.445 405.328 786.525 412.893 795.463 413.32C798.584 413.469 801.303 408.15 807.098 406.972C804.544 412.851 802.022 415.908 798.127 420.782C791.503 416.135 782.989 411.608 775.825 407.576Z"/><path fill="#EAB688" transform="scale(0.749864 0.75)" d="M606.669 416.8C618.435 418.915 617.493 409.479 631.715 410.764C627.156 414.284 615.021 422.989 609.464 422.502L607.536 421.592L606.669 416.8Z"/><path fill="#EAB688" transform="scale(0.749864 0.75)" d="M608.415 497.844C612.366 490.227 618.858 491.652 623.166 497.805C620.615 498.188 617.914 498.527 615.415 499.115C613.563 498.039 610.67 498.047 608.415 497.844Z"/><path fill="#EAB688" transform="scale(0.749864 0.75)" d="M608.415 497.844C610.67 498.047 613.563 498.039 615.415 499.115C611.821 501.399 608.233 504.29 603.999 504.176C605.101 502.38 607.144 499.649 608.415 497.844Z"/><path fill="#37271C" transform="scale(0.749864 0.75)" d="M662.826 509.15C681.828 512.385 694.114 513.378 713.376 514.557L713.439 517.229C706.945 522.748 709.358 532.626 710.008 540.562L708.603 542.465L707.451 541.979C706 538.775 706.224 536.771 706.207 533.26C705.73 528.135 705.449 524.66 705.522 519.444C695.993 521.177 689.046 521.005 679.375 520.83C679.814 525.369 681.466 545.148 671.924 540.233C670.953 536.955 671.178 535.735 671.399 532.423C672.138 522.472 664.889 519.289 660.947 513.397L660.326 513.101C660.958 510.304 660.423 511.357 662.826 509.15Z"/><path fill="#EAB688" transform="scale(0.749864 0.75)" d="M677.03 517.186C686.201 517.956 697.345 517.677 706.69 517.673C706.852 523.859 706.887 527.056 706.207 533.26C705.73 528.135 705.449 524.66 705.522 519.444C695.993 521.177 689.046 521.005 679.375 520.83C679.814 525.369 681.466 545.148 671.924 540.233C675.734 533.852 676.265 524.56 677.03 517.186Z"/><path fill="#EAB688" transform="scale(0.749864 0.75)" d="M660.947 513.397C665.238 513.967 669.9 514.488 674.138 515.181L671.399 532.423C672.138 522.472 664.889 519.289 660.947 513.397Z"/><path fill="#3D3B3A" transform="scale(0.749864 0.75)" d="M650.291 504.561C656.535 505.921 657.229 506.392 662.826 509.15C660.423 511.357 660.958 510.304 660.326 513.101L659.024 513.083C655.492 514.077 642.459 519.546 641.67 519.605C642.746 516.36 644.175 512.747 645.371 509.5L645.606 508.693C648.041 507.795 648.656 506.603 650.291 504.561Z"/><path fill="#EAB688" transform="scale(0.749864 0.75)" d="M645.371 509.5C650.361 510.275 654.287 511.267 659.024 513.083C655.492 514.077 642.459 519.546 641.67 519.605C642.746 516.36 644.175 512.747 645.371 509.5Z"/><path fill="#37271C" transform="scale(0.749864 0.75)" d="M713.376 514.557C724.399 512.26 736.301 510.34 747.449 508.357L746.754 511.431L741.701 514.379L737.56 514.564C729.617 515.635 721.348 517.265 713.439 517.229L713.376 514.557Z"/><path fill="#222121" transform="scale(0.749864 0.75)" d="M714.17 414.186C729.385 414.614 742.82 417.61 752.443 430.623C758.621 439.113 761.165 449.711 759.516 460.08C757.967 470.553 752.242 479.953 743.646 486.135C733.078 493.684 720.278 495.418 707.691 493.426C684.644 488.833 676.101 472.511 674.472 450.797C681.714 447.746 688.062 446.941 695.724 445.809C689.451 443.153 685.178 440.955 679.645 437.028C687.269 421.092 697.304 416.671 714.17 414.186Z"/><path fill="#462511" transform="scale(0.749864 0.75)" d="M625.596 341.825C626.947 342.453 626.377 341.992 627.083 343.485C624.359 351.691 605.426 369.125 597.853 378.4L596.348 377.179C594.609 368.892 618.236 344.499 625.596 341.825Z"/><path fill="#EAB688" transform="scale(0.749864 0.75)" d="M737.56 514.564C739.862 516.903 739.34 517.402 740.208 521.148C704.725 515.702 718.586 531.251 710.008 540.562C709.358 532.626 706.945 522.748 713.439 517.229C721.348 517.265 729.617 515.635 737.56 514.564Z"/><path fill="#462511" transform="scale(0.749864 0.75)" d="M737.56 514.564L741.701 514.379L743.045 515.219C744.301 520.471 747.83 532.23 745.184 536.63C741.928 532.536 741.144 526.266 740.208 521.148C739.34 517.402 739.862 516.903 737.56 514.564Z"/><path fill="#462511" transform="scale(0.749864 0.75)" d="M642.355 506.491C643.52 507.16 644.708 507.715 645.606 508.693L645.371 509.5C644.175 512.747 642.746 516.36 641.67 519.605C640.073 523.276 638.704 527.125 635.229 529.252C633.922 525.22 640.315 511.353 642.355 506.491Z"/><path fill="#462511" transform="scale(0.749864 0.75)" d="M599.895 417.844C597.785 415.134 593.591 411.744 596.34 408.631C601.511 409.18 603.686 412.962 606.669 416.8L607.536 421.592L604.427 422.294L599.895 417.844Z"/><path fill="#462511" transform="scale(0.749864 0.75)" d="M647.117 330.252C647.948 330.495 648.797 331.067 649.577 331.514L649.641 333.214C647.931 335.982 644.703 337.668 641.909 339.486L639.346 337.608L639.167 335.686C640.945 333.102 644.221 331.801 647.117 330.252Z"/><path fill="#FDB876" transform="scale(0.749864 0.75)" d="M1187.39 294.866L1192.01 298.255C1189.89 303.399 1186.95 309.977 1186.95 315.515C1198.66 318.488 1216.1 330.978 1226.48 337.943C1234.04 327.317 1252.65 304.066 1262.03 295.584L1263.77 295.477C1267.12 301.681 1234.33 332.692 1232.02 339.329C1231.15 341.839 1254.57 370.245 1257.18 374.163L1257.5 374.649C1272.67 367.692 1284.71 359.104 1298.46 349.855C1301.13 348.061 1305.87 346.377 1309.14 346.6L1310.25 347.492C1307.97 353.955 1269.48 374.486 1260.96 380.377C1278.93 417.239 1286.05 437.765 1280.77 479.139L1276.72 500.175C1262.69 542.555 1238.06 577.332 1197.36 597.793C1184.86 604.132 1171.5 608.598 1157.71 611.045C1151.61 611.52 1150.38 611.855 1145.68 608.142C1143.47 607.573 1139.27 607.491 1136.86 607.354L1124.1 607.469L1132.3 610.613C1128.67 611.156 1122.54 611.891 1119.22 612.846C1101.78 613.107 1077.33 603.648 1062.24 595.448C1026.96 575.948 1000.78 543.326 989.397 504.656C976.658 461.606 981.772 418.417 1003.13 379.063L1005.38 375.925C1006.38 375.354 1011.38 367.085 1012.78 365.17C1019.08 356.551 1025.92 349.805 1033.45 342.353L1030.61 337.042C1032.64 334.501 1031.56 335.268 1034.78 334.242L1037.16 335.262C1044.29 334.652 1051.89 328.143 1057.83 323.914C1064.85 319.69 1068.65 317.687 1076.19 314.62L1081.85 311.754C1083.78 311.759 1097.99 306.851 1100.6 305.972C1104.8 306.506 1110.14 307.029 1112.95 310.555C1119.46 310.505 1122.55 306.566 1133.51 306.979L1132.06 306.241L1134.28 304.563C1149.97 303.659 1167.71 308.17 1182.8 312.019C1183.89 306.31 1185.75 300.466 1187.39 294.866Z"/><path fill="#37271C" transform="scale(0.749864 0.75)" d="M1033.45 342.353L1038.43 343.828C1031.26 350.182 1016.38 366.022 1012.69 374.656L1012.33 375.277C1007.72 383.286 1003.52 386.516 999.381 395.861C995.811 403.93 993.13 418.921 989.683 425.347C987.051 440.113 984.893 458.59 986.902 473.558C988.323 480.605 991.22 490.944 992.168 497.237C994.52 506.877 995.87 512.338 1000.79 521.149C1001.88 523.299 1004.39 528.011 1005.04 530.091C1007.83 538.809 1010.56 541.804 1016.31 548.635L1019.84 553.057C1025.57 554.871 1053.63 580.962 1055.6 585.569C1061.02 590.627 1064.3 590.979 1070.54 594.19C1087.22 602.778 1105.15 607.059 1124.1 607.469L1132.3 610.613C1128.67 611.156 1122.54 611.891 1119.22 612.846C1101.78 613.107 1077.33 603.648 1062.24 595.448C1026.96 575.948 1000.78 543.326 989.397 504.656C976.658 461.606 981.772 418.417 1003.13 379.063L1005.38 375.925C1006.38 375.354 1011.38 367.085 1012.78 365.17C1019.08 356.551 1025.92 349.805 1033.45 342.353Z"/><path fill="#EAB688" transform="scale(0.749864 0.75)" d="M1019.84 553.057C1025.57 554.871 1053.63 580.962 1055.6 585.569C1043.54 579.18 1026.53 565.177 1019.84 553.057Z"/><defs><linearGradient id="gradient_3" gradientUnits="userSpaceOnUse" x1="1227.7345" y1="354.47513" x2="1271.2211" y2="305.03183"><stop offset="0" stop-color="#33251C"/><stop offset="1" stop-color="#262526"/></linearGradient></defs><path fill="url(#gradient_3)" transform="scale(0.749864 0.75)" d="M1226.48 337.943C1234.04 327.317 1252.65 304.066 1262.03 295.584L1263.77 295.477C1267.12 301.681 1234.33 332.692 1232.02 339.329C1231.15 341.839 1254.57 370.245 1257.18 374.163L1257.5 374.649C1272.67 367.692 1284.71 359.104 1298.46 349.855C1301.13 348.061 1305.87 346.377 1309.14 346.6L1310.25 347.492C1307.97 353.955 1269.48 374.486 1260.96 380.377L1257.97 383.208C1247.79 365.332 1229.36 344.324 1211.95 333.418C1205.81 329.572 1187.86 320.204 1181.13 317.424L1181.96 316.595C1184.49 316.835 1184.85 316.894 1186.95 315.515C1198.66 318.488 1216.1 330.978 1226.48 337.943Z"/><path fill="#37271C" transform="scale(0.749864 0.75)" d="M1272 496.306C1273.63 497.54 1275.31 498.71 1276.72 500.175C1262.69 542.555 1238.06 577.332 1197.36 597.793C1184.86 604.132 1171.5 608.598 1157.71 611.045C1151.61 611.52 1150.38 611.855 1145.68 608.142C1165.76 604.357 1188.51 601.676 1204.16 588.041C1204.44 587.771 1206.66 586.39 1207.15 586.081C1217.35 582.557 1223.29 575.222 1230.02 567.251C1232.9 563.493 1241.42 557.303 1244.84 552.881C1257.98 535.843 1265.48 516.272 1272 496.306Z"/><path fill="#EAB688" transform="scale(0.749864 0.75)" d="M1034.78 334.242L1037.16 335.262C1044.29 334.652 1051.89 328.143 1057.83 323.914L1059.81 327.124C1063.29 327.12 1065.2 325.709 1068.26 324.006C1062.72 334.43 1040.16 342.234 1031.87 352.993L1032.34 353.563C1037.41 351.411 1046.09 345.791 1049.87 345.261C1041.76 352.629 1035.29 359.641 1027.85 367.632L1026.58 363.603L1025.06 362.998C1019.74 365.348 1020.71 370.966 1012.69 374.656C1016.38 366.022 1031.26 350.182 1038.43 343.828L1033.45 342.353L1030.61 337.042C1032.64 334.501 1031.56 335.268 1034.78 334.242Z"/><defs><linearGradient id="gradient_4" gradientUnits="userSpaceOnUse" x1="1031.4292" y1="336.60068" x2="1058.4752" y2="330.80533"><stop offset="0" stop-color="#141112"/><stop offset="1" stop-color="#523F34"/></linearGradient></defs><path fill="url(#gradient_4)" transform="scale(0.749864 0.75)" d="M1034.78 334.242L1037.16 335.262C1044.29 334.652 1051.89 328.143 1057.83 323.914L1059.81 327.124C1050.94 330.529 1044.36 336.566 1038.43 343.828L1033.45 342.353L1030.61 337.042C1032.64 334.501 1031.56 335.268 1034.78 334.242Z"/><path fill="#3D3B3A" transform="scale(0.749864 0.75)" d="M1257.97 383.208L1260.96 380.377C1278.93 417.239 1286.05 437.765 1280.77 479.139L1276.26 477.818C1278.11 436.336 1275.87 419.544 1257.97 383.208Z"/><path fill="#37271C" transform="scale(0.749864 0.75)" d="M1187.39 294.866L1192.01 298.255C1189.89 303.399 1186.95 309.977 1186.95 315.515C1184.85 316.894 1184.49 316.835 1181.96 316.595L1181.13 317.424C1179.21 316.677 1177.03 316.07 1175.04 315.466C1170.17 313.708 1164.05 312.181 1158.98 310.776C1155.39 309.707 1149.01 309.287 1145.27 309.117C1140.82 307.972 1138.09 307.569 1133.51 306.979L1132.06 306.241L1134.28 304.563C1149.97 303.659 1167.71 308.17 1182.8 312.019C1183.89 306.31 1185.75 300.466 1187.39 294.866Z"/><path fill="#37271C" transform="scale(0.749864 0.75)" d="M1081.85 311.754C1083.78 311.759 1097.99 306.851 1100.6 305.972C1104.8 306.506 1110.14 307.029 1112.95 310.555C1101.54 312.462 1081.46 314.871 1072.41 321.779L1068.26 324.006C1065.2 325.709 1063.29 327.12 1059.81 327.124L1057.83 323.914C1064.85 319.69 1068.65 317.687 1076.19 314.62L1081.85 311.754Z"/><path fill="#EAB688" transform="scale(0.749864 0.75)" d="M1136.86 607.354C1140.75 605.418 1161.6 600.73 1167.31 599.329C1176.06 597.187 1198.12 587.757 1204.16 588.041C1188.51 601.676 1165.76 604.357 1145.68 608.142C1143.47 607.573 1139.27 607.491 1136.86 607.354Z"/><path fill="#EAB688" transform="scale(0.749864 0.75)" d="M1133.51 306.979C1138.09 307.569 1140.82 307.972 1145.27 309.117C1139.03 311.02 1134.17 307.91 1128.29 308.274C1123.75 308.556 1118.92 313.184 1114.13 311.646L1113.46 312.304L1116.75 312.956C1108.35 314.732 1077.81 323.182 1072.41 321.779C1081.46 314.871 1101.54 312.462 1112.95 310.555C1119.46 310.505 1122.55 306.566 1133.51 306.979Z"/><path fill="#462511" transform="scale(0.749864 0.75)" d="M1049.87 345.261C1052.87 343.836 1053.23 343.029 1056.06 343.444C1056.33 344.75 1056.48 345.038 1056.43 346.384C1053.54 348.682 1050.98 350.491 1048.76 353.453C1042.13 357.368 1040.56 358.522 1036.64 365.066C1033.5 369.294 1030.04 374.622 1025.14 376.685L1024.49 375.938C1025.48 371.857 1025.7 371.236 1027.85 367.632C1035.29 359.641 1041.76 352.629 1049.87 345.261Z"/><path fill="#EAB688" transform="scale(0.749864 0.75)" d="M989.683 425.347C993.751 435.159 991.575 464.038 986.902 473.558C984.893 458.59 987.051 440.113 989.683 425.347Z"/><path fill="#EAB688" transform="scale(0.749864 0.75)" d="M1207.15 586.081C1207.68 580.872 1223.03 567.072 1230.02 567.251C1223.29 575.222 1217.35 582.557 1207.15 586.081Z"/><path fill="#37271C" transform="scale(0.749864 0.75)" d="M1276.26 477.818L1280.77 479.139L1276.72 500.175C1275.31 498.71 1273.63 497.54 1272 496.306C1273.64 488.883 1275.4 486.407 1276.26 477.818Z"/><path fill="#EAB688" transform="scale(0.749864 0.75)" d="M992.168 497.237C1000.12 502.352 1002.66 512.236 1000.79 521.149C995.87 512.338 994.52 506.877 992.168 497.237Z"/><path fill="#EAB688" transform="scale(0.749864 0.75)" d="M1005.04 530.091C1012.54 533.153 1017.27 540.501 1016.31 548.635C1010.56 541.804 1007.83 538.809 1005.04 530.091Z"/><path fill="#EAB688" transform="scale(0.749864 0.75)" d="M1048.76 353.453C1049.12 354.866 1049.85 357.345 1050.06 358.683C1044.84 363.025 1043.4 364.549 1036.64 365.066C1040.56 358.522 1042.13 357.368 1048.76 353.453Z"/><path fill="#EAB688" transform="scale(0.749864 0.75)" d="M1056.43 346.384C1058.98 351.425 1053.64 355.167 1050.06 358.683C1049.85 357.345 1049.12 354.866 1048.76 353.453C1050.98 350.491 1053.54 348.682 1056.43 346.384Z"/><path fill="#EAB688" transform="scale(0.749864 0.75)" d="M1158.98 310.776C1164.05 312.181 1170.17 313.708 1175.04 315.466C1168.45 318.999 1162.63 317.197 1158.98 310.776Z"/><path fill="#F9F9F7" transform="scale(0.749864 0.75)" d="M1129.14 371.443C1129.9 368.424 1129.2 369.474 1131.88 367.565C1134.97 369.815 1133.23 386.76 1133.65 391.638C1147.2 389.214 1142.08 387.733 1159.17 390.589C1160.43 384.135 1159.98 381.879 1165.87 378.656C1166.56 375.522 1166.93 374.007 1169.59 372.289L1170.59 373.094L1170.57 376.266C1175.17 381.036 1172.78 390.355 1171.64 396.475C1177.28 399.364 1190.17 402.492 1196.33 403.996C1200.69 393.938 1203.21 387.821 1209.85 379.194C1208.35 385.498 1207.91 388.634 1204.91 394.496L1206.68 405.513C1208.92 407.62 1212.59 410.865 1214.34 413.172L1215.99 414.333L1225.52 414.283C1230.67 408.67 1233.41 399.928 1241.8 401.804L1243.47 404.248C1245.58 410.963 1238.85 415.833 1235.83 422.814C1237.79 426.383 1241.12 431.288 1240.86 435.11C1250.02 447.724 1250.14 454.522 1244.65 468.821C1239.21 473.384 1235.8 476.643 1231.92 482.873C1235.19 487.681 1241.68 496.667 1243.82 501.6L1243.44 503.095L1241.72 503.203C1233.57 502.581 1233.05 499.019 1230.54 491.865C1219.35 495.423 1216.25 496.336 1208.31 505.229C1210.32 509.242 1211.93 511.502 1210.93 515.966C1212.42 518.369 1212.64 518.71 1213.05 521.493L1212.2 522.567C1206.03 519.657 1200.24 506.006 1196.31 504.648C1192.52 505.388 1174.71 511.495 1172.05 513.506C1170.44 513.655 1167.24 513.646 1166.23 514.458C1167.12 517.171 1168.01 519.543 1168.36 522.399C1137.55 510.043 1145.38 536.205 1139.88 543.147C1138.68 543.424 1138.04 543.67 1136.82 543.558C1132.84 539.453 1134.46 523.525 1134.71 517.42C1132.52 517.076 1130.98 516.788 1128.83 516.239L1128.78 514.567C1121.87 514.83 1109.16 512.772 1101.06 512.238L1100.2 514.28L1099.53 514.627C1093.11 513.968 1077.17 508.365 1073.01 510.585C1073.61 517.589 1073.32 530.364 1063.83 531.246C1059.89 526.901 1063.41 522.342 1065.88 518.128C1064.51 515.895 1064.39 513.091 1063.24 510.536C1059.75 502.78 1050.71 500.638 1043.26 497.852C1040.95 500.353 1038.47 502.573 1035.96 504.878L1035.37 500.396C1037.34 498.716 1040.9 494.528 1042.78 492.423C1041.61 490.754 1040.95 490.047 1039.56 488.552L1034.08 493.767C1028.75 479.181 1009.73 468.671 1014.97 448.961C1017.1 440.926 1019.94 438.384 1026.83 434.136C1033 419.542 1020.53 417.856 1020.43 409.532C1021.46 407.241 1020.8 407.847 1022.76 406.744L1026.8 409.65C1033.19 409.503 1033.7 412.91 1038.24 415.45C1042.97 418.096 1050.56 410.391 1056.26 408.669L1058.66 407.609C1062.36 401.741 1055.67 397.079 1055.92 387.073C1058.26 386.234 1059.33 385.421 1061.28 387.709C1066.2 390.395 1068.82 396.998 1071.72 401.921C1078.88 396.878 1088.32 398.361 1092.13 391.775C1093.13 388.396 1091.87 385.551 1090.85 382.138C1089.83 377.821 1089.22 375.941 1091.38 372.145L1094.03 371.631L1097.27 372.453C1100.76 373.373 1099.69 372.628 1101.82 375.001C1102.43 377.811 1102.51 378.736 1102.58 381.616C1103.14 384.635 1103.15 386.611 1105.31 388.686C1111.89 391.929 1121.19 389.174 1128.82 387.881L1129.14 371.443Z"/><path fill="#37271C" transform="scale(0.749864 0.75)" d="M1026.83 434.136C1033 419.542 1020.53 417.856 1020.43 409.532C1021.46 407.241 1020.8 407.847 1022.76 406.744L1026.8 409.65C1030.42 415.092 1033.15 419.636 1039.12 422.742L1042.16 426.488C1031.29 436.154 1025.72 441.483 1020.53 455.76C1026.57 476.606 1035.99 482.3 1053.28 493.494C1068.51 503.353 1083.37 508.231 1101.06 512.238L1100.2 514.28L1099.53 514.627C1093.11 513.968 1077.17 508.365 1073.01 510.585C1073.61 517.589 1073.32 530.364 1063.83 531.246C1059.89 526.901 1063.41 522.342 1065.88 518.128C1064.51 515.895 1064.39 513.091 1063.24 510.536C1059.75 502.78 1050.71 500.638 1043.26 497.852C1040.95 500.353 1038.47 502.573 1035.96 504.878L1035.37 500.396C1037.34 498.716 1040.9 494.528 1042.78 492.423C1041.61 490.754 1040.95 490.047 1039.56 488.552L1034.08 493.767C1028.75 479.181 1009.73 468.671 1014.97 448.961C1017.1 440.926 1019.94 438.384 1026.83 434.136Z"/><path fill="#EAB688" transform="scale(0.749864 0.75)" d="M1026.83 434.136C1033 419.542 1020.53 417.856 1020.43 409.532C1021.46 407.241 1020.8 407.847 1022.76 406.744C1025.16 412.136 1032.15 421.037 1035.9 426.138C1033.21 428.68 1030.27 431.136 1028.51 434.367C1013.22 459.675 1014.64 470.023 1039.56 488.552L1034.08 493.767C1028.75 479.181 1009.73 468.671 1014.97 448.961C1017.1 440.926 1019.94 438.384 1026.83 434.136Z"/><path fill="#EAB688" transform="scale(0.749864 0.75)" d="M1042.78 492.423C1051.87 496.837 1062.19 501.678 1070.78 506.877L1065.88 518.128C1064.51 515.895 1064.39 513.091 1063.24 510.536C1059.75 502.78 1050.71 500.638 1043.26 497.852C1040.95 500.353 1038.47 502.573 1035.96 504.878L1035.37 500.396C1037.34 498.716 1040.9 494.528 1042.78 492.423Z"/><path fill="#EAB688" transform="scale(0.749864 0.75)" d="M1063.83 531.246C1066.72 524.421 1069.98 517.387 1073.01 510.585C1073.61 517.589 1073.32 530.364 1063.83 531.246Z"/><defs><linearGradient id="gradient_5" gradientUnits="userSpaceOnUse" x1="1244.5028" y1="407.50244" x2="1196.1353" y2="457.13477"><stop offset="0" stop-color="#43220B"/><stop offset="1" stop-color="#322821"/></linearGradient></defs><path fill="url(#gradient_5)" transform="scale(0.749864 0.75)" d="M1196.33 403.996C1200.69 393.938 1203.21 387.821 1209.85 379.194C1208.35 385.498 1207.91 388.634 1204.91 394.496L1206.68 405.513C1208.92 407.62 1212.59 410.865 1214.34 413.172L1215.99 414.333L1225.52 414.283C1230.67 408.67 1233.41 399.928 1241.8 401.804L1243.47 404.248C1245.58 410.963 1238.85 415.833 1235.83 422.814C1237.79 426.383 1241.12 431.288 1240.86 435.11C1250.02 447.724 1250.14 454.522 1244.65 468.821C1239.21 473.384 1235.8 476.643 1231.92 482.873C1235.19 487.681 1241.68 496.667 1243.82 501.6L1243.44 503.095L1241.72 503.203C1238.05 496.514 1232.06 491.097 1225.93 486.715C1225.74 486.515 1224.44 483.894 1224.21 483.45C1237.72 472.768 1240.16 468.752 1243.77 451.948C1243.15 450.484 1242.49 449.034 1241.81 447.597C1229.12 421.08 1195.92 408.925 1170.16 399.799L1166.47 396.481L1167.21 395.906L1171.64 396.475C1177.28 399.364 1190.17 402.492 1196.33 403.996Z"/><path fill="#EAB688" transform="scale(0.749864 0.75)" d="M1243.47 404.248C1245.58 410.963 1238.85 415.833 1235.83 422.814C1237.79 426.383 1241.12 431.288 1240.86 435.11C1223.32 424.404 1233.93 416.081 1243.47 404.248Z"/><path fill="#EAB688" transform="scale(0.749864 0.75)" d="M1225.52 414.283C1230.67 408.67 1233.41 399.928 1241.8 401.804L1241.02 402.402C1231.39 409.935 1229.9 425.356 1215.99 414.333L1225.52 414.283Z"/><path fill="#EAB688" transform="scale(0.749864 0.75)" d="M1199.89 406.57C1201.57 401.865 1202.71 398.968 1204.91 394.496L1206.68 405.513C1208.92 407.62 1212.59 410.865 1214.34 413.172C1207.93 410.913 1205.8 409.938 1199.89 406.57Z"/><path fill="#37271C" transform="scale(0.749864 0.75)" d="M1224.21 483.45C1224.44 483.894 1225.74 486.515 1225.93 486.715C1232.06 491.097 1238.05 496.514 1241.72 503.203C1233.57 502.581 1233.05 499.019 1230.54 491.865C1219.35 495.423 1216.25 496.336 1208.31 505.229C1210.32 509.242 1211.93 511.502 1210.93 515.966C1212.42 518.369 1212.64 518.71 1213.05 521.493L1212.2 522.567C1206.03 519.657 1200.24 506.006 1196.31 504.648C1192.52 505.388 1174.71 511.495 1172.05 513.506C1170.44 513.655 1167.24 513.646 1166.23 514.458C1167.12 517.171 1168.01 519.543 1168.36 522.399C1137.55 510.043 1145.38 536.205 1139.88 543.147C1138.68 543.424 1138.04 543.67 1136.82 543.558C1132.84 539.453 1134.46 523.525 1134.71 517.42C1132.52 517.076 1130.98 516.788 1128.83 516.239L1128.78 514.567C1162.39 513.677 1197.65 505.027 1224.21 483.45Z"/><path fill="#EAB688" transform="scale(0.749864 0.75)" d="M1201.9 502.053C1207.9 496.815 1218.97 490.603 1225.93 486.715C1232.06 491.097 1238.05 496.514 1241.72 503.203C1233.57 502.581 1233.05 499.019 1230.54 491.865C1219.35 495.423 1216.25 496.336 1208.31 505.229C1210.32 509.242 1211.93 511.502 1210.93 515.966C1208.19 512.535 1204.34 505.96 1201.9 502.053Z"/><path fill="#EAB688" transform="scale(0.749864 0.75)" d="M1137.86 517.95C1147.29 516.589 1156.75 515.425 1166.23 514.458C1167.12 517.171 1168.01 519.543 1168.36 522.399C1137.55 510.043 1145.38 536.205 1139.88 543.147C1138.68 543.424 1138.04 543.67 1136.82 543.558C1138.51 537.888 1137.95 524.567 1137.86 517.95Z"/><path fill="#37271C" transform="scale(0.749864 0.75)" d="M1090.85 382.138C1089.83 377.821 1089.22 375.941 1091.38 372.145L1094.03 371.631L1093.18 377.386C1094.6 382.865 1097.71 392.049 1096.2 397.039C1098.82 397.737 1101.45 398.38 1104.09 398.966C1082.37 401.993 1075.95 406.074 1057.39 417.705C1053.17 420.354 1046.7 424.494 1042.16 426.488L1039.12 422.742C1033.15 419.636 1030.42 415.092 1026.8 409.65C1033.19 409.503 1033.7 412.91 1038.24 415.45C1042.97 418.096 1050.56 410.391 1056.26 408.669L1058.66 407.609C1062.36 401.741 1055.67 397.079 1055.92 387.073C1058.26 386.234 1059.33 385.421 1061.28 387.709C1066.2 390.395 1068.82 396.998 1071.72 401.921C1078.88 396.878 1088.32 398.361 1092.13 391.775C1093.13 388.396 1091.87 385.551 1090.85 382.138Z"/><path fill="#EAB688" transform="scale(0.749864 0.75)" d="M1090.85 382.138C1089.83 377.821 1089.22 375.941 1091.38 372.145L1094.03 371.631L1093.18 377.386C1094.6 382.865 1097.71 392.049 1096.2 397.039C1090.14 398.511 1071.42 405.73 1068.19 405.629C1065.89 399.023 1063.33 395.451 1061.28 387.709C1066.2 390.395 1068.82 396.998 1071.72 401.921C1078.88 396.878 1088.32 398.361 1092.13 391.775C1093.13 388.396 1091.87 385.551 1090.85 382.138Z"/><path fill="#EAB688" transform="scale(0.749864 0.75)" d="M1055.92 387.073C1058.26 386.234 1059.33 385.421 1061.28 387.709C1063.33 395.451 1065.89 399.023 1068.19 405.629L1066.37 407.569C1063.01 409.218 1058.2 411.77 1054.88 413.166L1056.26 408.669L1058.66 407.609C1062.36 401.741 1055.67 397.079 1055.92 387.073Z"/><path fill="#37271C" transform="scale(0.749864 0.75)" d="M1055.92 387.073C1058.26 386.234 1059.33 385.421 1061.28 387.709C1063.33 395.451 1065.89 399.023 1068.19 405.629L1066.37 407.569C1063.51 400.104 1060.02 393.887 1055.92 387.073Z"/><path fill="#EAB688" transform="scale(0.749864 0.75)" d="M1026.8 409.65C1033.19 409.503 1033.7 412.91 1038.24 415.45C1042.97 418.096 1050.56 410.391 1056.26 408.669L1054.88 413.166C1048.71 416.436 1044.92 418.828 1039.12 422.742C1033.15 419.636 1030.42 415.092 1026.8 409.65Z"/><path fill="#EAB688" transform="scale(0.749864 0.75)" d="M1129.14 371.443C1129.9 368.424 1129.2 369.474 1131.88 367.565C1134.97 369.815 1133.23 386.76 1133.65 391.638L1133.52 392.328C1131.06 393.252 1132.07 393.262 1129.72 392.529C1123.99 392.309 1115.6 393.096 1109.88 394.052C1113.09 394.294 1115.95 394.133 1118.56 395.826C1112.3 397.861 1110.63 398.211 1104.09 398.966C1101.45 398.38 1098.82 397.737 1096.2 397.039C1097.71 392.049 1094.6 382.865 1093.18 377.386L1094.03 371.631L1097.27 372.453C1100.76 373.373 1099.69 372.628 1101.82 375.001C1102.43 377.811 1102.51 378.736 1102.58 381.616C1103.14 384.635 1103.15 386.611 1105.31 388.686C1111.89 391.929 1121.19 389.174 1128.82 387.881L1129.14 371.443Z"/><path fill="#462511" transform="scale(0.749864 0.75)" d="M1094.03 371.631L1097.27 372.453C1097.39 376.772 1097.06 378.688 1099.26 382.465C1099.62 386.1 1099.58 389.407 1101.64 392.37C1104.19 394.377 1106.65 394.362 1109.88 394.052C1113.09 394.294 1115.95 394.133 1118.56 395.826C1112.3 397.861 1110.63 398.211 1104.09 398.966C1101.45 398.38 1098.82 397.737 1096.2 397.039C1097.71 392.049 1094.6 382.865 1093.18 377.386L1094.03 371.631Z"/><path fill="#37271C" transform="scale(0.749864 0.75)" d="M1129.14 371.443C1129.9 368.424 1129.2 369.474 1131.88 367.565C1134.97 369.815 1133.23 386.76 1133.65 391.638L1133.52 392.328C1131.06 393.252 1132.07 393.262 1129.72 392.529C1129.75 385.267 1129.87 378.677 1129.14 371.443Z"/><path fill="#462511" transform="scale(0.749864 0.75)" d="M1165.87 378.656C1166.56 375.522 1166.93 374.007 1169.59 372.289L1170.59 373.094L1170.57 376.266C1175.17 381.036 1172.78 390.355 1171.64 396.475L1167.21 395.906L1166.47 396.481L1162.53 394.886C1163.97 390.082 1164.95 383.693 1165.87 378.656Z"/><path fill="#EAB688" transform="scale(0.749864 0.75)" d="M1170.57 376.266C1175.17 381.036 1172.78 390.355 1171.64 396.475L1167.21 395.906C1168.28 389.35 1169.4 382.803 1170.57 376.266Z"/><path fill="#EAB688" transform="scale(0.749864 0.75)" d="M1159.17 390.589C1160.43 384.135 1159.98 381.879 1165.87 378.656C1164.95 383.693 1163.97 390.082 1162.53 394.886C1156.96 393.153 1154.32 393.338 1148.48 393.488C1143.03 392.58 1138.99 392.508 1133.52 392.328L1133.65 391.638C1147.2 389.214 1142.08 387.733 1159.17 390.589Z"/><path fill="#3D3B3A" transform="scale(0.749864 0.75)" d="M1148.48 393.488C1154.32 393.338 1156.96 393.153 1162.53 394.886L1166.47 396.481L1170.16 399.799C1160.89 399.434 1154.04 399.367 1145.51 395.255L1148.48 393.488Z"/><path fill="#37271C" transform="scale(0.749864 0.75)" d="M1129.72 392.529C1132.07 393.262 1131.06 393.252 1133.52 392.328C1138.99 392.508 1143.03 392.58 1148.48 393.488L1145.51 395.255C1138.43 395.148 1124.97 394.661 1118.56 395.826C1115.95 394.133 1113.09 394.294 1109.88 394.052C1115.6 393.096 1123.99 392.309 1129.72 392.529Z"/><path fill="#222121" transform="scale(0.749864 0.75)" d="M1142.62 414.201C1154.6 413.431 1167.09 417.584 1175.95 425.736C1183.35 432.516 1187.63 442.038 1187.79 452.068C1188.59 482.961 1166.35 493.569 1139.13 493.614C1121.56 489.85 1107.43 480.409 1102.47 462.489C1098.86 449.416 1111.03 447.304 1119.77 445.741C1116.27 442.764 1111.57 439.568 1107.78 436.838C1114.71 420.922 1126.49 416.564 1142.62 414.201Z"/><path fill="#462511" transform="scale(0.749864 0.75)" d="M1101.06 512.238C1109.16 512.772 1121.87 514.83 1128.78 514.567L1128.83 516.239C1130.98 516.788 1132.52 517.076 1134.71 517.42C1124.69 517.814 1115.01 517.972 1105 517.108C1104.52 522.212 1103.72 534.914 1100.14 538.46C1098 536.498 1098.37 532.739 1098.47 529.943C1096.42 523.615 1096.48 520.468 1099.53 514.627L1100.2 514.28L1101.06 512.238Z"/><path fill="#EAB688" transform="scale(0.749864 0.75)" d="M1100.2 514.28C1101.74 520.361 1101.05 524.126 1098.47 529.943C1096.42 523.615 1096.48 520.468 1099.53 514.627L1100.2 514.28Z"/><path fill="#462511" transform="scale(0.749864 0.75)" d="M1039.56 488.552C1040.95 490.047 1041.61 490.754 1042.78 492.423C1040.9 494.528 1037.34 498.716 1035.37 500.396L1035.96 504.878C1033.54 508.299 1030.48 511.841 1025.79 510.038C1025.34 507.701 1025.15 508.744 1026.13 506.776C1028.46 501.194 1030.57 498.546 1034.08 493.767L1039.56 488.552Z"/><path fill="#EAB688" transform="scale(0.749864 0.75)" d="M1026.13 506.776C1029.43 506.229 1032.73 502.726 1035.37 500.396L1035.96 504.878C1033.54 508.299 1030.48 511.841 1025.79 510.038C1025.34 507.701 1025.15 508.744 1026.13 506.776Z"/><path fill="#462511" transform="scale(0.749864 0.75)" d="M1166.23 514.458C1167.24 513.646 1170.44 513.655 1172.05 513.506C1172.97 519.163 1175.61 532.452 1173.39 537.567C1171 535.92 1169.74 530.225 1169.22 527.406C1168.91 525.741 1168.62 524.072 1168.36 522.399C1168.01 519.543 1167.12 517.171 1166.23 514.458Z"/><path fill="#462511" transform="scale(0.749864 0.75)" d="M1073.7 330.037C1076.65 330.83 1076.92 330.35 1078.46 332.436C1076.81 335.458 1076.47 334.976 1073.12 337.059C1072.24 337.187 1070.75 337.218 1069.81 337.271L1069.04 336.066C1069.89 333.431 1071.7 332.04 1073.7 330.037Z"/><path fill="#222121" transform="scale(0.749864 0.75)" d="M829.091 374.936C837.588 370.993 876.262 345.713 879.956 345.772C880.875 348.224 880.606 347.411 879.665 350.5C875.926 354.734 839.852 375.949 832.496 379.465C831.56 381.558 830.501 384.98 829.175 386.412L826.248 379.796C827.996 377.715 828.398 377.473 829.091 374.936Z"/><defs><linearGradient id="gradient_6" gradientUnits="userSpaceOnUse" x1="796.07172" y1="317.81644" x2="832.01086" y2="320.00479"><stop offset="0" stop-color="#252221"/><stop offset="1" stop-color="#3A3B3C"/></linearGradient></defs><path fill="url(#gradient_6)" transform="scale(0.749864 0.75)" d="M838.079 292.878C832.354 303.932 811 331.69 801.5 339.35C799.644 341.058 798.786 342.002 796.534 343.232L795.403 343.079L793.398 340.756L795.871 337.285C810.027 324.342 819.436 305.286 838.079 292.878Z"/><path fill="#222121" transform="scale(0.749864 0.75)" d="M1076.19 314.62C1072.01 298.723 1061.48 275.37 1060.21 259.834L1060.87 259.242C1067.37 264.8 1078.98 301.874 1081.85 311.754L1076.19 314.62Z"/><path fill="#222121" transform="scale(0.749864 0.75)" d="M604.046 339.587C598.71 334.111 570.314 303.126 572.084 297.303C578.866 297.339 602.628 329.08 607.46 335.755L604.046 339.587Z"/><path fill="#222121" transform="scale(0.749864 0.75)" d="M648.571 313.57C646.243 302.447 627.66 265.203 630.887 259.183C638.383 263.667 648.588 299.634 654.479 311.383C652.205 314.009 652.97 313.879 650.027 314.811L648.571 313.57Z"/><path fill="#222121" transform="scale(0.749864 0.75)" d="M1030.61 337.042C1025.41 332.334 997.734 300.403 999.332 295.544C1007.04 296.589 1029.35 327.026 1034.78 334.242C1031.56 335.268 1032.64 334.501 1030.61 337.042Z"/><path fill="#222121" transform="scale(0.749864 0.75)" d="M753.636 310.944C756.219 302.106 768.674 263.66 773.841 259.045L775.069 259.097C776.721 266.13 761.277 303.704 758.216 313.314C756.51 312.939 755.127 311.89 753.636 310.944Z"/><path fill="#222121" transform="scale(0.749864 0.75)" d="M965.341 350.447C978.384 358.852 992.121 368.014 1005.38 375.925L1003.13 379.063C992.329 374.944 972.999 362.098 962.882 355.494L965.341 350.447Z"/><path fill="#222121" transform="scale(0.749864 0.75)" d="M1187.39 294.866C1190.8 285.278 1195.67 269.396 1201.41 261.627L1202.92 260.941C1205.17 265.935 1196.75 286.29 1194.43 292.395C1193.69 294.378 1192.89 296.332 1192.01 298.255L1187.39 294.866Z"/><path fill="#37271C" transform="scale(0.749864 0.75)" d="M1129.86 291.768C1129.21 278.411 1128.84 256.462 1132.37 243.717C1133.86 253.618 1133.03 302.675 1134.28 304.563L1132.06 306.241C1131.45 305.089 1130.65 295.097 1129.86 291.768Z"/><path fill="#6F6D6D" transform="scale(0.749864 0.75)" d="M1136.86 607.354C1139.27 607.491 1143.47 607.573 1145.68 608.142C1150.38 611.855 1151.61 611.52 1157.71 611.045C1147.52 613.346 1129.39 615.263 1119.22 612.846C1122.54 611.891 1128.67 611.156 1132.3 610.613L1124.1 607.469L1136.86 607.354Z"/><path fill="#3D3B3A" transform="scale(0.749864 0.75)" d="M1129.86 291.768C1130.65 295.097 1131.45 305.089 1132.06 306.241L1133.51 306.979C1122.55 306.566 1119.46 310.505 1112.95 310.555C1110.14 307.029 1104.8 306.506 1100.6 305.972C1109.42 304.464 1120.72 304.363 1129.77 304.055L1129.86 291.768Z"/><path fill="#3D3B3A" transform="scale(0.749864 0.75)" d="M962.882 355.494C959.15 353.72 955.061 352.474 955.395 347.916L957.391 346.99C960.7 347.176 962.527 348.674 965.341 350.447L962.882 355.494Z"/><path fill="#222121" transform="scale(0.749864 0.75)" d="M621.776 962.497C625.854 958.879 632.557 954.461 637.496 952.159C644.645 948.756 652.381 946.76 660.284 946.278C682.374 944.938 715.741 945.902 738.505 945.952L880.4 946.199L1097.27 946.731C1117.71 946.906 1178.89 944.445 1194.54 950.242C1203.88 955.017 1239.55 973.581 1231.91 985.974C1228.35 991.752 1185.22 989.725 1177.31 989.679L1098.47 989.548L735.272 989.476C718.622 989.518 612.274 992.674 603.131 986.666C602.101 985.99 601.478 984.942 600.908 983.882C599.865 974.78 615.271 966.496 621.776 962.497Z"/><path fill="#F9F9F7" transform="scale(0.749864 0.75)" d="M763.267 954.731C769.701 950.692 808.53 954.289 817.595 954.762C824.672 955.131 837.174 952.814 842.704 953.237C886.213 956.566 929.162 951.504 972.637 952.744C977.079 952.871 990.441 952.897 993.747 955.534C994.4 955.278 997.228 954.986 998.104 954.876C1003.31 955.332 1012.14 955.881 1016.89 956.996C1020.76 957.532 1028.78 957.594 1031.13 958.433C1028.68 964.876 1019.02 961.872 1012.91 962.414C1009.64 962.884 1009.43 962.389 1007.13 964.323C1011.94 969.065 1029.57 965.186 1033.13 968.046C1033.17 969.915 1033.34 970.474 1032.39 972.11L1031.21 975.578C1008.76 977.526 976.353 976.605 953.06 976.586L813.526 976.217C797.56 976.191 762.946 975.444 748.146 976.813C744.855 978.051 734.728 977.412 731.094 976.897C735.177 976.509 735.366 975.194 737.553 972.231C738.082 969.639 738.697 968.688 739.917 966.395L740.149 963.988L738.37 962.31C732.849 962.149 723.479 963.786 719.643 960.84L720.177 958.074C729.865 956.44 737.109 960.491 744.496 954.558C747.046 954.044 761.59 953.814 763.267 954.731Z"/><path fill="#6F6D6D" transform="scale(0.749864 0.75)" d="M744.496 954.558C747.046 954.044 761.59 953.814 763.267 954.731C766.018 956.837 766.764 957.598 770.127 958.546C773.427 958.47 777.616 958.038 780.511 959.351C781.997 961.612 781.758 960.579 781.439 963.222L780.762 963.373C775.261 964.548 763.894 964.469 756.164 965.658L756.6 966.159C784.385 967.735 954.82 964.055 961.905 968.189L961.728 969.471C952.444 974.023 924.791 969.321 916.349 970.772C896.834 974.126 754.911 967.613 747.779 973.138C747.713 974.764 747.599 975.232 748.146 976.813C744.855 978.051 734.728 977.412 731.094 976.897C735.177 976.509 735.366 975.194 737.553 972.231C738.082 969.639 738.697 968.688 739.917 966.395L740.149 963.988L738.37 962.31C732.849 962.149 723.479 963.786 719.643 960.84L720.177 958.074C729.865 956.44 737.109 960.491 744.496 954.558Z"/><path fill="#222121" transform="scale(0.749864 0.75)" d="M770.127 958.546C773.427 958.47 777.616 958.038 780.511 959.351C781.997 961.612 781.758 960.579 781.439 963.222C772.183 963.303 765.863 963.748 756.952 960.935L756.702 959.848C761.007 958.226 765.516 958.549 770.127 958.546Z"/><path fill="#3D3B3A" transform="scale(0.749864 0.75)" d="M720.177 958.074C724.919 958.235 742.621 958.148 745.355 960.472C743.879 962.063 741.809 962.171 739.474 962.278C739.106 962.295 738.738 962.305 738.37 962.31C732.849 962.149 723.479 963.786 719.643 960.84L720.177 958.074Z"/><path fill="#9B9A99" transform="scale(0.749864 0.75)" d="M998.104 954.876C1003.31 955.332 1012.14 955.881 1016.89 956.996C1020.76 957.532 1028.78 957.594 1031.13 958.433C1028.68 964.876 1019.02 961.872 1012.91 962.414C1009.64 962.884 1009.43 962.389 1007.13 964.323C1011.94 969.065 1029.57 965.186 1033.13 968.046C1033.17 969.915 1033.34 970.474 1032.39 972.11C1015.97 971.501 987.66 974.18 972.861 970.556L972.193 969.027C973.963 967.299 987.089 964.975 990.158 964.349C989.447 963.935 977.29 963.487 975.453 963.312C970.666 962.702 970.086 962.359 967.69 958.539C977.082 955.738 983.157 960.296 993.747 955.534C994.4 955.278 997.228 954.986 998.104 954.876Z"/><path fill="#222121" transform="scale(0.749864 0.75)" d="M967.69 958.539C973.998 958.462 988.294 957.806 993.285 960.77C990.031 964.033 980.246 962.969 975.453 963.312C970.666 962.702 970.086 962.359 967.69 958.539Z"/><path fill="#222121" transform="scale(0.749864 0.75)" d="M1012.91 962.414C1010.42 962.194 1008.13 962.231 1006.52 960.675C1010.79 957.989 1025.83 958.438 1031.13 958.433C1028.68 964.876 1019.02 961.872 1012.91 962.414Z"/><path fill="#222121" transform="scale(0.749864 0.75)" d="M860.926 958.881C866.98 958.554 881.327 957.168 886.784 959.516C887.955 960.02 887.791 961.051 888.088 962.591C880.083 963.065 865.591 965.756 860.926 958.881Z"/><path fill="#3D3B3A" transform="scale(0.749864 0.75)" d="M790.019 958.903C796.953 958.507 808.723 957.353 815.378 959.208C817.119 959.694 817.146 961.008 817.687 962.645C810.603 962.934 793.272 965.564 790.019 958.903Z"/><path fill="#222121" transform="scale(0.749864 0.75)" d="M826.004 958.899C832.663 958.483 843.577 957.378 849.944 959.109C851.91 959.643 851.977 960.886 852.817 962.781C845.512 963.116 829.265 965.817 826.004 958.899Z"/><path fill="#3D3B3A" transform="scale(0.749864 0.75)" d="M896.825 958.912C902.265 958.46 918.904 957.242 923.665 959.914C924.281 960.26 924.154 961.067 924.335 962.152C917.601 962.833 900.067 965.35 896.825 958.912Z"/><path fill="#222121" transform="scale(0.749864 0.75)" d="M932.838 958.913C938.276 958.61 955.567 957.074 959.265 960.118L959.397 962.124C952.706 962.707 942.547 963.626 936.05 962.076C933.715 961.518 933.95 961.006 932.838 958.913Z"/><defs><linearGradient id="gradient_7" gradientUnits="userSpaceOnUse" x1="924.68298" y1="951.31476" x2="924.66711" y2="987.40314"><stop offset="0" stop-color="#232222"/><stop offset="1" stop-color="#3F3D3E"/></linearGradient></defs><path fill="url(#gradient_7)" transform="scale(0.749864 0.75)" d="M1194.54 950.242C1203.88 955.017 1239.55 973.581 1231.91 985.974C1228.35 991.752 1185.22 989.725 1177.31 989.679L1098.47 989.548L735.272 989.476C718.622 989.518 612.274 992.674 603.131 986.666C602.101 985.99 601.478 984.942 600.908 983.882C599.865 974.78 615.271 966.496 621.776 962.497C618.454 970.925 597.661 974.213 604.823 985.668L606.297 985.604C606.362 983.825 606.569 982.912 606.903 981.204C609.747 979.404 680.193 980.146 690.486 980.145L1000.74 980.228C1038.97 979.396 1077.89 980.235 1116.19 979.694C1134.72 979.433 1153.76 980.534 1172.33 979.886C1180.89 977.256 1219.28 981.139 1226.65 978.14L1226.46 976.807L1223.19 975.673L1222.06 974.001C1212.16 968.303 1199.38 960.117 1191.96 951.466L1194.54 950.242Z"/><path fill="#F9F9F7" transform="scale(0.749864 0.75)" d="M606.297 985.604C606.362 983.825 606.569 982.912 606.903 981.204C609.747 979.404 680.193 980.146 690.486 980.145L1000.74 980.228C1014.26 981.037 1027.24 981.49 1040.71 981.712C1054.38 981.937 1080.85 979.318 1093.06 982.205C1081.37 982.419 1072.35 982.141 1060.63 983.362C1053.46 984.109 1040.15 982.579 1032.71 983.251C1017.9 984.591 1005.11 984.796 990.298 984.787L932.242 984.737C925.916 984.739 907.929 984.508 902.082 985.331C872.911 986.106 840.845 985.453 811.494 985.449L606.297 985.604Z"/><path fill="#D3D2D2" transform="scale(0.749864 0.75)" d="M1000.74 980.228C1038.97 979.396 1077.89 980.235 1116.19 979.694C1134.72 979.433 1153.76 980.534 1172.33 979.886C1178.82 979.971 1224.49 979.42 1227.89 981.087C1227.76 982.408 1228.01 982.7 1227.36 983.319C1225.11 985.495 1219.4 985.802 1216.25 985.828C1202.27 985.943 1188.15 985.526 1174.15 985.471L1089.48 985.459C1028.94 985.478 962.052 986.873 902.082 985.331C907.929 984.508 925.916 984.739 932.242 984.737L990.298 984.787C1005.11 984.796 1017.9 984.591 1032.71 983.251C1040.15 982.579 1053.46 984.109 1060.63 983.362C1072.35 982.141 1081.37 982.419 1093.06 982.205C1080.85 979.318 1054.38 981.937 1040.71 981.712C1027.24 981.49 1014.26 981.037 1000.74 980.228Z"/><path fill="#F9F9F7" transform="scale(0.749864 0.75)" d="M1132.43 949.679C1144.95 949.576 1180.53 948.937 1191.96 951.466C1199.38 960.117 1212.16 968.303 1222.06 974.001L1223.19 975.673C1218.18 977.304 1195.6 976.266 1188.23 976.305C1159.61 976.455 1130.91 976.81 1102.29 976.478C1079.27 976.21 1053.96 973.206 1031.21 975.578L1032.39 972.11C1033.34 970.474 1033.17 969.915 1033.13 968.046C1029.57 965.186 1011.94 969.065 1007.13 964.323C1009.43 962.389 1009.64 962.884 1012.91 962.414C1019.02 961.872 1028.68 964.876 1031.13 958.433C1028.78 957.594 1020.76 957.532 1016.89 956.996C1012.14 955.881 1003.31 955.332 998.104 954.876C1006.25 952.495 1017.64 953.384 1026.75 952.61L1026.86 950.527C1062.04 949.822 1097.24 949.539 1132.43 949.679Z"/><path fill="#D3D2D2" transform="scale(0.749864 0.75)" d="M1132.43 949.679C1144.95 949.576 1180.53 948.937 1191.96 951.466C1199.38 960.117 1212.16 968.303 1222.06 974.001C1217.06 974.554 1218.06 975.236 1214.61 972.976L1215.36 973.018C1206.88 967.639 1200.29 960.24 1192.13 954.587C1189.05 952.449 1180.16 952.32 1176.1 952.016C1183.45 950.457 1184.92 957.045 1185.82 962.324C1187.94 963.526 1194.81 963.506 1198.47 964.139L1199.36 965.639L1198.44 967.03C1194.56 968.079 1179.52 967.729 1173.67 968.048L1173.75 968.684C1179.83 970.202 1207.98 972.075 1209.18 972.586C1206.04 974.133 1173 971.53 1170.51 968.387C1174.3 966.107 1194.03 966.684 1201.48 965.735L1176.2 962.928C1179.65 962.606 1180.6 962.64 1183.77 961.135L1183.88 959.986C1180.16 958.103 1176.34 958.409 1172.17 958.371C1173.33 957.652 1180.22 957.452 1182.38 957.232L1182.96 955.969L1181.85 954.596C1174.93 951.943 1155.29 952.996 1147.05 953.124L1141.34 953.239C1137.73 950.001 1137.19 950.227 1132.43 949.679Z"/><path fill="#F9F9F7" transform="scale(0.749864 0.75)" d="M1026.75 952.61C1035.7 952.193 1064.32 949.686 1070.63 953.857L1071.06 955.267C1064.19 960 1043.27 955.755 1034.44 955.753C1028.45 955.752 1022.86 956.384 1016.89 956.996C1012.14 955.881 1003.31 955.332 998.104 954.876C1006.25 952.495 1017.64 953.384 1026.75 952.61Z"/><path fill="#F9F9F7" transform="scale(0.749864 0.75)" d="M1147.05 953.124C1146.63 953.721 1144.71 956.39 1144.15 956.589C1139.11 958.397 1122.77 959.394 1119.55 954.478C1123.82 951.649 1135.95 952.989 1141.34 953.239L1147.05 953.124Z"/><path fill="#3D3B3A" transform="scale(0.749864 0.75)" d="M1172.17 958.371C1176.34 958.409 1180.16 958.103 1183.88 959.986L1183.77 961.135C1180.6 962.64 1179.65 962.606 1176.2 962.928C1169.55 962.919 1164.24 963.353 1157.93 961.196L1158.39 960.286C1163.65 958.25 1166.62 958.468 1172.17 958.371Z"/><path fill="#3D3B3A" transform="scale(0.749864 0.75)" d="M1128.09 967.053C1134.49 966.246 1146.69 965.914 1153.2 966.835C1155.94 967.222 1156.29 968.387 1157.43 970.299C1149.95 970.706 1140.63 971.566 1133.32 970.47C1129.65 969.921 1129.82 969.575 1128.09 967.053Z"/><path fill="#3D3B3A" transform="scale(0.749864 0.75)" d="M1088.34 966.979C1093.79 966.704 1115.29 963.999 1116.08 970.33C1108.87 970.856 1097.83 971.756 1090.77 969.955C1088.95 969.49 1089 968.615 1088.34 966.979Z"/><path fill="#222121" transform="scale(0.749864 0.75)" d="M1118.77 958.884C1124.62 958.567 1140.09 957.178 1145.08 959.937C1145.67 960.262 1145.63 961.582 1145.75 962.508C1138.3 962.934 1123.17 965.614 1118.77 958.884Z"/><path fill="#222121" transform="scale(0.749864 0.75)" d="M1045.56 958.894C1049.96 958.529 1066.8 957.342 1070.13 959.676L1070.16 961.728C1064.33 962.804 1047.42 966.121 1045.56 958.894Z"/><path fill="#222121" transform="scale(0.749864 0.75)" d="M1081.04 958.969C1088.96 958.272 1104.09 956.237 1109.87 961.869C1102.22 962.782 1086.53 964.854 1081.04 958.969Z"/><path fill="#F9F9F7" transform="scale(0.749864 0.75)" d="M1088.7 952.879C1094.44 952.464 1104.23 950.461 1105.17 957.617C1100.02 957.518 1090.83 958.682 1087.8 954.5L1088.7 952.879Z"/><path fill="#F9F9F7" transform="scale(0.749864 0.75)" d="M674.873 952.152L686.96 952.172L693.138 952.68C701.443 952.575 739.46 951.407 744.496 954.558C737.109 960.491 729.865 956.44 720.177 958.074L719.643 960.84C723.479 963.786 732.849 962.149 738.37 962.31L740.149 963.988L739.917 966.395C738.697 968.688 738.082 969.639 737.553 972.231C735.366 975.194 735.177 976.509 731.094 976.897C723.739 976.055 704.398 976.584 695.75 976.519C667.652 976.199 639.551 976.196 611.452 976.511C620.36 969.187 636.426 959.103 646.522 952.305L674.873 952.152Z"/><path fill="#9B9A99" transform="scale(0.749864 0.75)" d="M674.873 952.152L686.96 952.172L693.138 952.68C701.443 952.575 739.46 951.407 744.496 954.558C737.109 960.491 729.865 956.44 720.177 958.074L719.643 960.84C723.479 963.786 732.849 962.149 738.37 962.31L740.149 963.988L739.917 966.395C738.697 968.688 738.082 969.639 737.553 972.231C725.85 971.659 717.019 973.551 705.585 974.271C696.745 974.829 684.798 972.874 676.133 971.218L674.859 970.537L674.68 967.453C675.244 965.71 674.952 964.533 674.758 962.716C674.867 961.125 674.55 960.845 673.849 959.408C671.216 957.896 667.729 958.395 664.509 958.454C669.666 955.329 670.74 957.652 674.873 952.152Z"/><path fill="#F9F9F7" transform="scale(0.749864 0.75)" d="M693.138 952.68C701.443 952.575 739.46 951.407 744.496 954.558C737.109 960.491 729.865 956.44 720.177 958.074L719.643 960.84C723.479 963.786 732.849 962.149 738.37 962.31L740.149 963.988L739.917 966.395C730.559 967.344 718.839 968.842 711.567 962.064C709.022 957.65 707.118 958.427 702.238 958.195C698.859 956.267 688.149 959.134 685.255 955.089C687.828 953.346 690.057 953.228 693.138 952.68Z"/><path fill="#D3D2D2" transform="scale(0.749864 0.75)" d="M674.873 952.152L686.96 952.172L693.138 952.68C690.057 953.228 687.828 953.346 685.255 955.089C688.149 959.134 698.859 956.267 702.238 958.195C694.422 958.735 687.495 956.738 682.711 961.483C689.36 966.512 698.982 958.715 702.585 966.647C697.775 966.591 678.274 965.989 674.68 967.453C675.244 965.71 674.952 964.533 674.758 962.716C674.867 961.125 674.55 960.845 673.849 959.408C671.216 957.896 667.729 958.395 664.509 958.454C669.666 955.329 670.74 957.652 674.873 952.152Z"/><path fill="#3D3B3A" transform="scale(0.749864 0.75)" d="M674.68 967.453C678.274 965.989 697.775 966.591 702.585 966.647C697.632 974.024 684.607 970.484 676.133 971.218L674.859 970.537L674.68 967.453Z"/><path fill="#222121" transform="scale(0.749864 0.75)" d="M702.238 958.195C707.118 958.427 709.022 957.65 711.567 962.064C704.623 962.299 689.009 962.991 682.711 961.483C687.495 956.738 694.422 958.735 702.238 958.195Z"/><path fill="#222121" transform="scale(0.749864 0.75)" d="M664.509 958.454C667.729 958.395 671.216 957.896 673.849 959.408C674.55 960.845 674.867 961.125 674.758 962.716C667.27 962.756 657.172 963.221 650.178 960.781L650.348 959.687C654.887 958.068 659.674 958.429 664.509 958.454Z"/><path fill="#3D3B3A" transform="scale(0.749864 0.75)" d="M636.34 967.027C642.116 966.259 653.868 966.079 659.755 966.739C663.274 967.134 663.633 967.967 665.321 970.298C660.516 971.263 648.725 971.524 643.653 970.893C639.103 970.327 638.624 970.105 636.34 967.027Z"/><path fill="#D3D2D2" transform="scale(0.749864 0.75)" d="M686.96 952.172C692.591 951.173 712.218 951.495 719.218 951.476L785.869 951.311L1026.86 950.527L1026.75 952.61C1017.64 953.384 1006.25 952.495 998.104 954.876C997.228 954.986 994.4 955.278 993.747 955.534C990.441 952.897 977.079 952.871 972.637 952.744C929.162 951.504 886.213 956.566 842.704 953.237C837.174 952.814 824.672 955.131 817.595 954.762C808.53 954.289 769.701 950.692 763.267 954.731C761.59 953.814 747.046 954.044 744.496 954.558C739.46 951.407 701.443 952.575 693.138 952.68L686.96 952.172Z"/><path fill="#222121" transform="scale(0.749864 0.75)" d="M1274.05 952.362C1304.59 941.438 1338.44 939.462 1368.89 952.584C1386.89 960.342 1398.68 981.449 1374.59 990.159C1361.34 994.947 1337.79 993.821 1324.18 990.629C1317.25 989.162 1311.9 987.418 1305.15 985.256C1297.42 983.123 1292.12 981.253 1284.61 978.384C1272.36 973.531 1256.33 963.662 1274.05 952.362Z"/><path fill="#F9F9F7" transform="scale(0.749864 0.75)" d="M1274.05 952.362C1274.02 954.301 1274.07 957.444 1273.8 959.25C1309.76 963.465 1301.83 969.423 1329.03 982.114C1327.14 982.982 1324.96 984.053 1323.05 984.793L1327.89 986.89L1324.18 990.629C1317.25 989.162 1311.9 987.418 1305.15 985.256C1297.42 983.123 1292.12 981.253 1284.61 978.384C1272.36 973.531 1256.33 963.662 1274.05 952.362Z"/><path fill="#3D3B3A" transform="scale(0.749864 0.75)" d="M1274.05 952.362C1274.02 954.301 1274.07 957.444 1273.8 959.25C1271.85 961.397 1272.3 960.298 1272.28 963.478C1274.98 969.497 1282.3 971.691 1288.26 974.001C1285.93 975.546 1285.74 975.823 1284.61 978.384C1272.36 973.531 1256.33 963.662 1274.05 952.362Z"/><path fill="#222121" transform="scale(0.749864 0.75)" d="M1288.26 974.001L1309.32 981.182L1305.15 985.256C1297.42 983.123 1292.12 981.253 1284.61 978.384C1285.74 975.823 1285.93 975.546 1288.26 974.001Z"/><path fill="#3D3B3A" transform="scale(0.749864 0.75)" d="M1309.32 981.182C1315.33 983.963 1316.44 984.462 1323.05 984.793L1327.89 986.89L1324.18 990.629C1317.25 989.162 1311.9 987.418 1305.15 985.256L1309.32 981.182Z"/><path fill="#D3D2D2" transform="scale(0.749864 0.75)" d="M1329.03 982.114C1331.9 983.143 1335.66 984.073 1337.44 986.269C1335.22 988.292 1330.81 987.275 1327.89 986.89L1323.05 984.793C1324.96 984.053 1327.14 982.982 1329.03 982.114Z"/><path fill="#F9F9F7" transform="scale(0.749864 0.75)" d="M1294.86 951.086C1321.63 948.7 1352.65 945.58 1375.44 963.141C1380.23 966.829 1385.39 974.899 1379.47 979.884C1372.02 986.155 1359.09 984.843 1349.9 984.646C1325.61 983.895 1315.35 966.377 1293.66 958.977C1293.79 955.516 1294.07 954.408 1294.86 951.086Z"/><path fill="#D3D2D2" transform="scale(0.749864 0.75)" d="M1293.66 958.977C1289.6 958.032 1284.36 957.944 1283.95 953.402C1286.52 950.754 1291.38 950.967 1294.86 951.086C1294.07 954.408 1293.79 955.516 1293.66 958.977Z"/></svg>